<svg width="188" height="40" viewBox="0 0 188 40" fill="none" xmlns="http://www.w3.org/2000/svg">
<rect width="40" height="40" rx="2" fill="#60D06E"/>
<path d="M23.4463 24.52L20.4363 21.51C20.3263 21.4 20.1963 21.38 20.1263 21.38C20.0563 21.38 19.9263 21.4 19.8163 21.51L16.7963 24.53C16.4563 24.87 15.9263 25.42 14.1563 25.42L17.8663 29.12C19.0363 30.29 20.9363 30.29 22.1063 29.12L25.8263 25.41C24.9163 25.41 24.1563 25.23 23.4463 24.52Z" fill="#121215"/>
<path d="M16.7963 15.47L19.8163 18.49C19.8963 18.57 20.0163 18.62 20.1263 18.62C20.2363 18.62 20.3563 18.57 20.4363 18.49L23.4263 15.5C24.1363 14.76 24.9463 14.59 25.8563 14.59L22.1363 10.88C20.9663 9.71 19.0663 9.71 17.8963 10.88L14.1863 14.58C15.9463 14.58 16.4863 15.16 16.7963 15.47Z" fill="#121215"/>
<path d="M29.1063 17.85L26.8563 15.59H25.5963C25.0563 15.59 24.5163 15.81 24.1463 16.2L21.1463 19.2C20.8663 19.48 20.4963 19.62 20.1263 19.62C19.7663 19.62 19.3863 19.47 19.1063 19.2L16.0863 16.17C15.7063 15.79 15.1863 15.57 14.6363 15.57H13.1663L10.8763 17.87C9.70628 19.04 9.70628 20.94 10.8763 22.11L13.1663 24.41H14.6463C15.1863 24.41 15.7063 24.19 16.0963 23.81L19.1163 20.79C19.3963 20.51 19.7663 20.37 20.1363 20.37C20.5063 20.37 20.8763 20.51 21.1563 20.79L24.1663 23.8C24.5463 24.18 25.0663 24.4 25.6163 24.4H26.8763L29.1263 22.14C30.2963 20.96 30.2963 19.04 29.1063 17.85Z" fill="#121215"/>
<path d="M63.968 28.336C61.888 28.336 60.24 27.76 59.024 26.608C57.808 25.44 57.2 23.776 57.2 21.616V17.584C57.2 15.424 57.808 13.768 59.024 12.616C60.24 11.448 61.888 10.864 63.968 10.864C66.032 10.864 67.624 11.432 68.744 12.568C69.88 13.688 70.448 15.232 70.448 17.2V17.344H67.328V17.104C67.328 16.112 67.048 15.296 66.488 14.656C65.944 14.016 65.104 13.696 63.968 13.696C62.848 13.696 61.968 14.04 61.328 14.728C60.688 15.416 60.368 16.352 60.368 17.536V21.664C60.368 22.832 60.688 23.768 61.328 24.472C61.968 25.16 62.848 25.504 63.968 25.504C65.104 25.504 65.944 25.184 66.488 24.544C67.048 23.888 67.328 23.072 67.328 22.096V21.664H70.448V22C70.448 23.968 69.88 25.52 68.744 26.656C67.624 27.776 66.032 28.336 63.968 28.336ZM73.0293 28V11.2H80.3253C81.3813 11.2 82.3013 11.384 83.0853 11.752C83.8693 12.12 84.4773 12.64 84.9093 13.312C85.3413 13.984 85.5573 14.776 85.5573 15.688V15.976C85.5573 16.984 85.3173 17.8 84.8373 18.424C84.3573 19.048 83.7653 19.504 83.0613 19.792V20.224C83.7013 20.256 84.1973 20.48 84.5493 20.896C84.9013 21.296 85.0773 21.832 85.0773 22.504V28H81.9093V22.96C81.9093 22.576 81.8053 22.264 81.5973 22.024C81.4053 21.784 81.0773 21.664 80.6133 21.664H76.1973V28H73.0293ZM76.1973 18.784H79.9893C80.7413 18.784 81.3253 18.584 81.7413 18.184C82.1733 17.768 82.3893 17.224 82.3893 16.552V16.312C82.3893 15.64 82.1813 15.104 81.7653 14.704C81.3493 14.288 80.7573 14.08 79.9893 14.08H76.1973V18.784ZM87.7134 28V25.216H89.9214V13.984H87.7134V11.2H96.3534C97.3774 11.2 98.2654 11.376 99.0174 11.728C99.7854 12.064 100.377 12.552 100.793 13.192C101.225 13.816 101.441 14.568 101.441 15.448V15.688C101.441 16.456 101.297 17.088 101.009 17.584C100.721 18.064 100.377 18.44 99.9774 18.712C99.5934 18.968 99.2254 19.152 98.8734 19.264V19.696C99.2254 19.792 99.6094 19.976 100.025 20.248C100.441 20.504 100.793 20.88 101.081 21.376C101.385 21.872 101.537 22.52 101.537 23.32V23.56C101.537 24.488 101.321 25.288 100.889 25.96C100.457 26.616 99.8574 27.12 99.0894 27.472C98.3374 27.824 97.4574 28 96.4494 28H87.7134ZM93.0894 25.12H96.0654C96.7534 25.12 97.3054 24.952 97.7214 24.616C98.1534 24.28 98.3694 23.8 98.3694 23.176V22.936C98.3694 22.312 98.1614 21.832 97.7454 21.496C97.3294 21.16 96.7694 20.992 96.0654 20.992H93.0894V25.12ZM93.0894 18.112H96.0174C96.6734 18.112 97.2094 17.944 97.6254 17.608C98.0574 17.272 98.2734 16.808 98.2734 16.216V15.976C98.2734 15.368 98.0654 14.904 97.6494 14.584C97.2334 14.248 96.6894 14.08 96.0174 14.08H93.0894V18.112ZM110.561 28V11.2H114.401L118.865 26.728H119.177L123.641 11.2H127.481V28H125.537V12.52H125.201L120.761 28H117.281L112.841 12.52H112.505V28H110.561ZM136.822 28.336C135.638 28.336 134.59 28.088 133.678 27.592C132.782 27.096 132.078 26.4 131.566 25.504C131.07 24.592 130.822 23.52 130.822 22.288V21.976C130.822 20.76 131.07 19.696 131.566 18.784C132.078 17.872 132.782 17.168 133.678 16.672C134.59 16.176 135.638 15.928 136.822 15.928C138.006 15.928 139.046 16.176 139.942 16.672C140.854 17.168 141.558 17.872 142.054 18.784C142.566 19.696 142.822 20.76 142.822 21.976V22.288C142.822 23.52 142.566 24.592 142.054 25.504C141.558 26.4 140.854 27.096 139.942 27.592C139.046 28.088 138.006 28.336 136.822 28.336ZM136.822 26.632C138.07 26.632 139.062 26.24 139.798 25.456C140.55 24.656 140.926 23.584 140.926 22.24V22.024C140.926 20.68 140.55 19.616 139.798 18.832C139.062 18.032 138.07 17.632 136.822 17.632C135.59 17.632 134.598 18.032 133.846 18.832C133.094 19.616 132.718 20.68 132.718 22.024V22.24C132.718 23.584 133.094 24.656 133.846 25.456C134.598 26.24 135.59 26.632 136.822 26.632ZM146.234 28V16.264H148.082V18.256H148.418C148.674 17.696 149.106 17.192 149.714 16.744C150.338 16.28 151.25 16.048 152.45 16.048C153.33 16.048 154.114 16.232 154.802 16.6C155.506 16.968 156.066 17.512 156.482 18.232C156.898 18.952 157.106 19.84 157.106 20.896V28H155.21V21.04C155.21 19.872 154.914 19.024 154.322 18.496C153.746 17.968 152.962 17.704 151.97 17.704C150.834 17.704 149.906 18.072 149.186 18.808C148.482 19.544 148.13 20.64 148.13 22.096V28H146.234ZM166.329 28.336C165.145 28.336 164.105 28.088 163.209 27.592C162.313 27.08 161.617 26.368 161.121 25.456C160.625 24.544 160.377 23.488 160.377 22.288V22C160.377 20.784 160.625 19.72 161.121 18.808C161.617 17.896 162.305 17.192 163.185 16.696C164.065 16.184 165.073 15.928 166.209 15.928C167.313 15.928 168.289 16.168 169.137 16.648C169.985 17.112 170.649 17.784 171.129 18.664C171.609 19.544 171.849 20.576 171.849 21.76V22.624H162.273C162.321 23.888 162.729 24.88 163.497 25.6C164.265 26.304 165.225 26.656 166.377 26.656C167.385 26.656 168.161 26.424 168.705 25.96C169.249 25.496 169.665 24.944 169.953 24.304L171.585 25.096C171.345 25.592 171.009 26.088 170.577 26.584C170.161 27.08 169.609 27.496 168.921 27.832C168.249 28.168 167.385 28.336 166.329 28.336ZM162.297 21.064H169.929C169.865 19.976 169.489 19.128 168.801 18.52C168.129 17.912 167.265 17.608 166.209 17.608C165.137 17.608 164.257 17.912 163.569 18.52C162.881 19.128 162.457 19.976 162.297 21.064ZM176.572 32.8V31.12H183.292C183.756 31.12 183.988 30.88 183.988 30.4V26.128H183.652C183.492 26.464 183.244 26.8 182.908 27.136C182.588 27.456 182.164 27.72 181.636 27.928C181.108 28.12 180.444 28.216 179.644 28.216C178.796 28.216 178.012 28.032 177.292 27.664C176.588 27.296 176.028 26.752 175.612 26.032C175.212 25.312 175.012 24.432 175.012 23.392V16.264H176.908V23.248C176.908 24.4 177.196 25.24 177.772 25.768C178.364 26.296 179.156 26.56 180.148 26.56C181.268 26.56 182.188 26.192 182.908 25.456C183.628 24.72 183.988 23.624 183.988 22.168V16.264H185.884V30.736C185.884 31.376 185.7 31.88 185.332 32.248C184.98 32.616 184.46 32.8 183.772 32.8H176.572Z" fill="#60D06E"/>
</svg>
