<svg width="32" height="32" viewBox="0 0 32 32" fill="none" xmlns="http://www.w3.org/2000/svg">
<path d="M16.0001 2.66669C8.64008 2.66669 2.66675 8.64002 2.66675 16C2.66675 23.36 8.64008 29.3334 16.0001 29.3334C23.3601 29.3334 29.3334 23.36 29.3334 16C29.3334 8.64002 23.3601 2.66669 16.0001 2.66669ZM16.0001 26.6667C10.1201 26.6667 5.33341 21.88 5.33341 16C5.33341 10.12 10.1201 5.33335 16.0001 5.33335C21.8801 5.33335 26.6667 10.12 26.6667 16C26.6667 21.88 21.8801 26.6667 16.0001 26.6667ZM16.4134 14.8534C14.0534 14.2534 13.2934 13.6 13.2934 12.6267C13.2934 11.5067 14.3467 10.72 16.0934 10.72C17.9334 10.72 18.6267 11.6 18.6801 12.9067H20.9601C20.8934 11.12 19.8001 9.48002 17.6401 8.94669V6.66669H14.5334V8.92002C12.5201 9.34669 10.9067 10.6534 10.9067 12.6667C10.9067 15.0534 12.8934 16.2534 15.7867 16.9467C18.3867 17.56 18.9067 18.48 18.9067 19.44C18.9067 20.1467 18.3867 21.2934 16.1067 21.2934C13.9734 21.2934 13.1334 20.3334 13.0134 19.1067H10.7201C10.8534 21.3734 12.5334 22.6534 14.5334 23.0667V25.3334H17.6534V23.1067C19.6801 22.72 21.2801 21.56 21.2934 19.4134C21.2801 16.48 18.7601 15.4667 16.4134 14.8534Z" fill="#121215"/>
</svg>
