<svg width="32" height="32" viewBox="0 0 32 32" fill="none" xmlns="http://www.w3.org/2000/svg">
<path d="M15.9999 5.33331C21.8799 5.33331 26.6666 10.12 26.6666 16C26.6666 21.88 21.8799 26.6666 15.9999 26.6666C10.1199 26.6666 5.33325 21.88 5.33325 16C5.33325 10.12 10.1199 5.33331 15.9999 5.33331ZM15.9999 2.66665C8.63992 2.66665 2.66658 8.63998 2.66658 16C2.66658 23.36 8.63992 29.3333 15.9999 29.3333C23.3599 29.3333 29.3333 23.36 29.3333 16C29.3333 8.63998 23.3599 2.66665 15.9999 2.66665ZM17.3333 16L17.3332 10.6666L14.6666 10.6666L14.6666 16L10.6666 16L15.9999 21.3333L21.3333 16L17.3333 16Z" fill="#E52E4D"/>
</svg>
